<svg width="16" height="16" viewBox="0 0 16 16" fill="none" xmlns="http://www.w3.org/2000/svg">
<g id="carbon:report">
<path id="Vector" d="M13.7273 1.90909H11.8182V1.27273C11.8182 0.935179 11.6841 0.611456 11.4454 0.372773C11.2067 0.13409 10.883 0 10.5455 0H5.45455C5.117 0 4.79327 0.13409 4.55459 0.372773C4.31591 0.611456 4.18182 0.935179 4.18182 1.27273V1.90909H2.27273C1.93518 1.90909 1.61146 2.04318 1.37277 2.28186C1.13409 2.52055 1 2.84427 1 3.18182V14C1 14.3375 1.13409 14.6613 1.37277 14.9C1.61146 15.1386 1.93518 15.2727 2.27273 15.2727H13.7273C14.0648 15.2727 14.3885 15.1386 14.6272 14.9C14.8659 14.6613 15 14.3375 15 14V3.18182C15 2.84427 14.8659 2.52055 14.6272 2.28186C14.3885 2.04318 14.0648 1.90909 13.7273 1.90909ZM5.45455 1.27273H10.5455V3.81818H5.45455V1.27273ZM13.7273 14H2.27273V3.18182H4.18182V5.09091H11.8182V3.18182H13.7273V14Z" fill="#060F14" fill-opacity="0.5"/>
<g id="Vector_2">
<path d="M7.14286 10.5472L5.60429 9.00861L5 9.6129L7.14286 11.7558L11 7.89861L10.3957 7.29004L7.14286 10.5472Z" fill="#060F14" fill-opacity="0.5"/>
<path d="M7.14281 10.4057L5.675 8.9379L5.60429 8.86719L5.53357 8.9379L4.92929 9.54219L4.85858 9.6129L4.92929 9.68361L7.07215 11.8265L7.14286 11.8972L7.21357 11.8265L11.0707 7.96932L11.1412 7.89886L11.071 7.82815L10.4667 7.21958L10.3959 7.14832L10.325 7.21937L7.14281 10.4057Z" stroke="#060F14" stroke-opacity="0.5" stroke-width="0.2"/>
</g>
</g>
</svg>
