<svg width="16" height="16" viewBox="0 0 16 16" fill="none" xmlns="http://www.w3.org/2000/svg">
<g id="fluent:book-contacts-28-regular">
<g id="Group">
<path id="Vector" d="M9.30288 5.52344C9.30302 5.70633 9.26713 5.88745 9.19727 6.05647C9.12741 6.22548 9.02494 6.37909 8.89572 6.5085C8.7665 6.63792 8.61305 6.74062 8.44414 6.81073C8.27523 6.88084 8.09416 6.917 7.91127 6.91714C7.72839 6.91728 7.54726 6.88139 7.37825 6.81153C7.20923 6.74167 7.05563 6.6392 6.92621 6.50998C6.7968 6.38076 6.6941 6.22731 6.62399 6.0584C6.55387 5.88948 6.51771 5.70842 6.51758 5.52553C6.5173 5.15618 6.66376 4.80184 6.92474 4.54047C7.18571 4.2791 7.53983 4.13211 7.90918 4.13184C8.27854 4.13156 8.63287 4.27802 8.89424 4.539C9.15561 4.79997 9.3026 5.15409 9.30288 5.52344ZM10.3468 8.17929V8.55512C10.3468 9.31026 9.30984 9.87539 7.91092 9.87539C6.51201 9.87539 5.475 9.30956 5.475 8.55582V8.17929C5.47473 8.1052 5.48906 8.03179 5.51718 7.96324C5.5453 7.89469 5.58666 7.83236 5.63889 7.77981C5.69111 7.72726 5.75319 7.68552 5.82156 7.65698C5.88993 7.62843 5.96326 7.61365 6.03735 7.61346H9.78519C9.85922 7.61374 9.93248 7.62859 10.0008 7.65718C10.0691 7.68576 10.1311 7.72751 10.1832 7.78006C10.2354 7.8326 10.2767 7.8949 10.3047 7.9634C10.3328 8.0319 10.3471 8.10526 10.3468 8.17929Z" fill="#060F14" fill-opacity="0.5"/>
<path id="Vector_2" d="M3.56115 2C2.96124 2 2.38591 2.23831 1.96172 2.6625C1.53753 3.0867 1.29922 3.66203 1.29922 4.26193V12.3096C1.29922 12.9095 1.53753 13.4849 1.96172 13.9091C2.38591 14.3333 2.96124 14.5716 3.56115 14.5716H14.0008C14.1393 14.5716 14.272 14.5166 14.3699 14.4187C14.4678 14.3208 14.5228 14.188 14.5228 14.0496C14.5228 13.9111 14.4678 13.7784 14.3699 13.6805C14.272 13.5826 14.1393 13.5276 14.0008 13.5276H3.56115C3.26827 13.5276 2.98521 13.4221 2.76382 13.2303C2.54244 13.0386 2.39755 12.7735 2.35571 12.4836H14.0008C14.1393 12.4836 14.272 12.4286 14.3699 12.3307C14.4678 12.2329 14.5228 12.1001 14.5228 11.9616V4.26193C14.5228 3.66203 14.2845 3.0867 13.8603 2.6625C13.4361 2.23831 12.8608 2 12.2609 2H3.56115ZM13.4788 4.26193V11.4397H2.34318V4.26193C2.34318 3.58961 2.88883 3.04397 3.56115 3.04397H12.2609C12.9339 3.04397 13.4788 3.58961 13.4788 4.26193Z" fill="#060F14" fill-opacity="0.5"/>
</g>
</g>
</svg>
