<svg width="16" height="16" viewBox="0 0 16 16" fill="none" xmlns="http://www.w3.org/2000/svg">
<g id="carbon:chart-treemap">
<g id="Vector">
<path d="M13.5714 1.5H2.42857C2.18237 1.50025 1.94633 1.59816 1.77224 1.77224C1.59816 1.94633 1.50025 2.18237 1.5 2.42857V13.5714C1.50025 13.8176 1.59816 14.0537 1.77224 14.2278C1.94633 14.4018 2.18237 14.4998 2.42857 14.5H13.5714C13.8176 14.4998 14.0537 14.4018 14.2278 14.2278C14.4018 14.0537 14.4998 13.8176 14.5 13.5714V2.42857C14.4998 2.18237 14.4018 1.94633 14.2278 1.77224C14.0537 1.59816 13.8176 1.50025 13.5714 1.5ZM13.5714 7.07143H11.25V2.42857H13.5714V7.07143ZM8 2.42857H10.3214V7.07143H8V2.42857ZM7.07143 2.42857V9.85714H2.42857V2.42857H7.07143ZM2.42857 10.7857H7.07143V13.5714H2.42857V10.7857ZM8 13.5714V8H13.5714V13.5714H8Z" fill="#060F14" fill-opacity="0.5"/>
<path d="M13.5715 1.4H13.5714L2.42857 1.4L2.42847 1.4C2.15579 1.40027 1.89435 1.50872 1.70153 1.70153C1.50872 1.89435 1.40027 2.15579 1.4 2.42847V2.42857L1.4 13.5714L1.4 13.5715C1.40027 13.8442 1.50872 14.1056 1.70153 14.2985C1.89435 14.4913 2.15579 14.5997 2.42847 14.6H2.42857H13.5714H13.5715C13.8442 14.5997 14.1056 14.4913 14.2985 14.2985C14.4913 14.1056 14.5997 13.8442 14.6 13.5715V13.5714V2.42857V2.42847C14.5997 2.15579 14.4913 1.89435 14.2985 1.70153C14.1056 1.50872 13.8442 1.40027 13.5715 1.4ZM13.4714 6.97143H11.35V2.52857H13.4714V6.97143ZM8.1 2.52857H10.2214V6.97143H8.1V2.52857ZM6.97143 2.52857V9.75714H2.52857V2.52857H6.97143ZM2.52857 10.8857H6.97143V13.4714H2.52857V10.8857ZM8.1 8.1H13.4714V13.4714H8.1V8.1Z" stroke="#060F14" stroke-opacity="0.5" stroke-width="0.2"/>
</g>
</g>
</svg>
