<svg width="16" height="16" viewBox="0 0 16 16" fill="none" xmlns="http://www.w3.org/2000/svg">
<g id="Frame 365">
<g id="Group 101">
<g id="Vector">
<path d="M0.409913 3.15344L0.465991 3.09736C7.32073 -3.01187 13.7103 1.53706 15.5082 3.07757C15.6483 3.19698 15.7635 3.34287 15.8472 3.50688C15.9308 3.6709 15.9813 3.8498 15.9957 4.03336C16.0101 4.21691 15.9882 4.40151 15.9311 4.57656C15.874 4.75162 15.783 4.91369 15.6632 5.0535L13.8456 6.87109C13.7136 7.00336 13.5449 7.09293 13.3614 7.12822C13.1779 7.16351 12.988 7.14288 12.8164 7.06902L11.0813 6.3367C10.9131 6.26506 10.7696 6.14557 10.6688 5.99309C10.5679 5.84061 10.514 5.66186 10.5139 5.47903L10.5073 4.06718C9.77383 3.55323 8.90021 3.27698 8.0046 3.2758C7.109 3.27462 6.23465 3.54857 5.49984 4.06059L5.49324 5.48563C5.49071 5.66882 5.43431 5.84722 5.33107 5.99856C5.22782 6.14991 5.08231 6.26751 4.91266 6.3367L3.17094 7.08221C2.9996 7.15269 2.81117 7.17055 2.62964 7.13354C2.44811 7.09653 2.28171 7.00632 2.15164 6.87439L0.409913 5.13267C0.14745 4.87021 0 4.51423 0 4.14305C0 3.77187 0.14745 3.4159 0.409913 3.15344ZM14.9243 4.47292C15.0118 4.38544 15.0609 4.26678 15.0609 4.14305C15.0609 4.01933 15.0118 3.90067 14.9243 3.81318L14.8979 3.78679C12.7933 1.98569 7.20198 -1.65939 1.08945 3.79339C1.04343 3.83405 1.0059 3.88339 0.978995 3.93859C0.952091 3.99378 0.936348 4.05375 0.932671 4.11504C0.928993 4.17634 0.937452 4.23775 0.957563 4.29577C0.977674 4.35379 1.00904 4.40727 1.04986 4.45313L2.81138 6.21465L4.5531 5.46914L4.5597 3.58227L4.73783 3.44373C7.96728 0.9334 11.2264 3.41404 11.2561 3.44372L11.4342 3.58227L11.4441 5.46584L13.1826 6.21465L14.9243 4.47292Z" fill="#060F14" fill-opacity="0.5"/>
</g>
<path id="Vector_2" d="M2.2959 8.33301H4.59218V10.6293H2.2959V8.33301ZM6.88846 8.33301H9.18473V10.6293H6.88846V8.33301ZM11.481 8.33301H13.7773V10.6293H11.481V8.33301ZM2.2959 12.9256H4.59218V15.2218H2.2959V12.9256ZM6.88846 12.9256H9.18473V15.2218H6.88846V12.9256ZM11.481 12.9256H13.7773V15.2218H11.481V12.9256Z" fill="#060F14" fill-opacity="0.5"/>
</g>
</g>
</svg>
