<svg width="16" height="16" viewBox="0 0 16 16" fill="none" xmlns="http://www.w3.org/2000/svg">
<g id="carbon:document-signed">
<g id="Group 80">
<path id="Vector" d="M9.26616 14.2252H6.61263V11.5716L9.63888 8.54539C9.62543 8.43529 9.6186 8.32447 9.61844 8.21355C9.61802 7.6048 9.80245 7.01027 10.1473 6.50863C10.4922 6.00699 10.9812 5.62189 11.5498 5.40428C12.1183 5.18667 12.7395 5.14681 13.3312 5.28997C13.9228 5.43314 14.4571 5.75258 14.8633 6.20603C15.2694 6.65948 15.5283 7.22557 15.6057 7.82938C15.6831 8.43319 15.5753 9.04627 15.2966 9.58748C15.018 10.1287 14.5815 10.5726 14.0451 10.8603C13.5086 11.148 12.8974 11.2661 12.2924 11.1989L9.26616 14.2252ZM7.81495 13.0229H8.7684L11.8981 9.8932L12.2227 9.96774C12.6091 10.0597 13.015 10.023 13.3787 9.86328C13.7424 9.70354 14.0441 9.42946 14.2378 9.08267C14.4316 8.73589 14.5069 8.33534 14.4522 7.94188C14.3976 7.54841 14.2161 7.18352 13.9352 6.90263C13.6543 6.62174 13.2894 6.4402 12.8959 6.38557C12.5025 6.33095 12.1019 6.40623 11.7551 6.59998C11.4084 6.79373 11.1343 7.09536 10.9745 7.45907C10.8148 7.82277 10.7781 8.22868 10.8701 8.61513L10.9446 8.93975L7.81495 12.0694V13.0229Z" fill="#060F14" fill-opacity="0.5"/>
<path id="Vector_2" d="M12.6245 8.81495C12.9565 8.81495 13.2257 8.5458 13.2257 8.21379C13.2257 7.88178 12.9565 7.61263 12.6245 7.61263C12.2925 7.61263 12.0233 7.88178 12.0233 8.21379C12.0233 8.5458 12.2925 8.81495 12.6245 8.81495Z" fill="#060F14" fill-opacity="0.5"/>
<path id="Vector_3" d="M2.40592 3.40488H9.61988V4.6072H2.40592V3.40488ZM2.40592 5.80953H6.0129V7.01186H2.40592V5.80953ZM2.40592 8.21418H6.0129V9.41651H2.40592V8.21418Z" fill="#060F14" fill-opacity="0.5"/>
<path id="Vector_4" d="M4.80931 14.2256H1.20233C0.883548 14.2253 0.577916 14.0985 0.352505 13.8731C0.127094 13.6477 0.000318302 13.342 0 13.0233V2.20233C0.000318302 1.88355 0.127094 1.57792 0.352505 1.3525C0.577916 1.12709 0.883548 1.00032 1.20233 1H10.8209C11.1397 1.00032 11.4454 1.12709 11.6708 1.3525C11.8962 1.57792 12.023 1.88355 12.0233 2.20233V4.00582H10.8209V2.20233H1.20233V13.0233H4.80931V14.2256Z" fill="#060F14" fill-opacity="0.5"/>
</g>
</g>
</svg>
