<svg width="18" height="18" viewBox="0 0 18 18" fill="none" xmlns="http://www.w3.org/2000/svg">
<g id="carbon:home">
<path id="Vector" d="M9.34425 1.24537C9.24444 1.16756 9.1215 1.1253 8.99494 1.1253C8.86838 1.1253 8.74544 1.16756 8.64563 1.24537L0.5625 7.54819L1.26169 8.43244L2.25 7.66181V14.625C2.25059 14.9232 2.36931 15.209 2.58016 15.4198C2.79101 15.6307 3.07681 15.7494 3.375 15.75H14.625C14.9232 15.7494 15.209 15.6307 15.4198 15.4198C15.6307 15.209 15.7494 14.9232 15.75 14.625V7.66687L16.7383 8.4375L17.4375 7.55325L9.34425 1.24537ZM10.125 14.625H7.875V10.125H10.125V14.625ZM11.25 14.625V10.125C11.2497 9.82672 11.1311 9.54075 10.9202 9.32983C10.7093 9.11892 10.4233 9.0003 10.125 9H7.875C7.57672 9.0003 7.29075 9.11892 7.07983 9.32983C6.86892 9.54075 6.7503 9.82672 6.75 10.125V14.625H3.375V6.78487L9 2.403L14.625 6.7905V14.625H11.25Z" fill="#060F14" fill-opacity="0.5"/>
</g>
</svg>
